<svg xmlns="http://www.w3.org/2000/svg" xmlns:xlink="http://www.w3.org/1999/xlink" xmlns:inkscape="http://www.inkscape.org/namespaces/inkscape" version="1.1" width="595.276" height="841.89" viewBox="0 0 595.276 841.89">
<path transform="matrix(1,0,0,-1,156.70629,86.1803)" d="M28.52278 12.98442H-28.52278C-30.1735 12.98442-31.51161 11.6463-31.51161 9.99559V-9.99559C-31.51161-11.6463-30.1735-12.98442-28.52278-12.98442H28.52278C30.1735-12.98442 31.51161-11.6463 31.51161-9.99559V9.99559C31.51161 11.6463 30.1735 12.98442 28.52278 12.98442ZM-31.51161-12.98442" fill="#7f807f" fill-opacity=".5"/>
<path transform="matrix(1,0,0,-1,155.71,85.18402)" d="M28.52278 12.98442H-28.52278C-30.1735 12.98442-31.51161 11.6463-31.51161 9.99559V-9.99559C-31.51161-11.6463-30.1735-12.98442-28.52278-12.98442H28.52278C30.1735-12.98442 31.51161-11.6463 31.51161-9.99559V9.99559C31.51161 11.6463 30.1735 12.98442 28.52278 12.98442ZM-31.51161-12.98442" fill="#d6ebf2" fill-opacity=".8"/>
<path transform="matrix(1,0,0,-1,155.71,85.18402)" stroke-width=".3985" stroke-linecap="butt" stroke-miterlimit="10" stroke-linejoin="miter" fill="none" stroke="#000000" d="M28.52278 12.98442H-28.52278C-30.1735 12.98442-31.51161 11.6463-31.51161 9.99559V-9.99559C-31.51161-11.6463-30.1735-12.98442-28.52278-12.98442H28.52278C30.1735-12.98442 31.51161-11.6463 31.51161-9.99559V9.99559C31.51161 11.6463 30.1735 12.98442 28.52278 12.98442ZM-31.51161-12.98442"/>
<text xml:space="preserve" transform="matrix(1 0 -0 1 .0000076293949 841.89)" font-size="8.9664" font-family="CMR9"><tspan y="-760.243" x="128.603 133.84835 137.45284 142.06157 149.74578 153.84342 160.55028 163.87682 168.99663 174.11644 179.23625">FramesInput</tspan><tspan y="-749.284" x="127.519 131.10556 133.921 137.5255 142.13423 149.81844 153.91608">(frames</tspan></text>
<path transform="matrix(1,0,0,-1,158.09803,92.40704)" stroke-width=".398" stroke-linecap="butt" stroke-miterlimit="10" stroke-linejoin="miter" fill="none" stroke="#000000" d="M0 0H2.765"/>
<text xml:space="preserve" transform="matrix(1 0 -0 1 .0000076293949 841.89)" font-size="8.9664" font-family="CMR9"><tspan y="-749.284" x="160.862 165.47074 168.03513 170.59952 175.20825 180.32807">align)</tspan></text>
<path transform="matrix(1,0,0,-1,156.70629,86.1803)" d="M167.7513 7.47208H119.9394C118.2887 7.47208 116.95058 6.13394 116.95058 4.48325V-4.48325C116.95058-6.13394 118.2887-7.47208 119.9394-7.47208H167.7513C169.40201-7.47208 170.74013-6.13394 170.74013-4.48325V4.48325C170.74013 6.13394 169.40201 7.47208 167.7513 7.47208ZM116.95058-7.47208" fill="#7f807f" fill-opacity=".5"/>
<path transform="matrix(1,0,0,-1,155.71,85.18402)" d="M167.7513 7.47208H119.9394C118.2887 7.47208 116.95058 6.13394 116.95058 4.48325V-4.48325C116.95058-6.13394 118.2887-7.47208 119.9394-7.47208H167.7513C169.40201-7.47208 170.74013-6.13394 170.74013-4.48325V4.48325C170.74013 6.13394 169.40201 7.47208 167.7513 7.47208ZM116.95058-7.47208" fill="#c7f6c7" fill-opacity=".8"/>
<path transform="matrix(1,0,0,-1,155.71,85.18402)" stroke-width=".3985" stroke-linecap="butt" stroke-miterlimit="10" stroke-linejoin="miter" fill="none" stroke="#000000" d="M167.7513 7.47208H119.9394C118.2887 7.47208 116.95058 6.13394 116.95058 4.48325V-4.48325C116.95058-6.13394 118.2887-7.47208 119.9394-7.47208H167.7513C169.40201-7.47208 170.74013-6.13394 170.74013-4.48325V4.48325C170.74013 6.13394 169.40201 7.47208 167.7513 7.47208ZM116.95058-7.47208"/>
<text xml:space="preserve" transform="matrix(1 0 -0 1 0 841.89)" font-size="8.9664" font-family="CMR9"><tspan y="-754.514" x="275.98 280.9743 287.8874 294.1549 300.85279 304.17933 309.29914 314.41896 319.53877">FAPsInput</tspan></text>
<path transform="matrix(1,0,0,-1,156.70629,86.1803)" d="M308.55036 7.47208H259.1679C257.5172 7.47208 256.1791 6.13394 256.1791 4.48325V-4.48325C256.1791-6.13394 257.5172-7.47208 259.1679-7.47208H308.55036C310.20106-7.47208 311.53919-6.13394 311.53919-4.48325V4.48325C311.53919 6.13394 310.20106 7.47208 308.55036 7.47208ZM256.1791-7.47208" fill="#7f807f" fill-opacity=".5"/>
<path transform="matrix(1,0,0,-1,155.71,85.18402)" d="M308.55036 7.47208H259.1679C257.5172 7.47208 256.1791 6.13394 256.1791 4.48325V-4.48325C256.1791-6.13394 257.5172-7.47208 259.1679-7.47208H308.55036C310.20106-7.47208 311.53919-6.13394 311.53919-4.48325V4.48325C311.53919 6.13394 310.20106 7.47208 308.55036 7.47208ZM256.1791-7.47208" fill="#ffdbe0" fill-opacity=".8"/>
<path transform="matrix(1,0,0,-1,155.71,85.18402)" stroke-width=".3985" stroke-linecap="butt" stroke-miterlimit="10" stroke-linejoin="miter" fill="none" stroke="#000000" d="M308.55036 7.47208H259.1679C257.5172 7.47208 256.1791 6.13394 256.1791 4.48325V-4.48325C256.1791-6.13394 257.5172-7.47208 259.1679-7.47208H308.55036C310.20106-7.47208 311.53919-6.13394 311.53919-4.48325V4.48325C311.53919 6.13394 310.20106 7.47208 308.55036 7.47208ZM256.1791-7.47208"/>
<text xml:space="preserve" transform="matrix(1 0 -0 1 0 841.89)" font-size="8.9664" font-family="CMR9"><tspan y="-754.514" x="415.206 418.8105 425.078 431.34553 441.65687 444.9834 450.1032 455.22303 460.33387">rPPGInput</tspan></text>
<path transform="matrix(1,0,0,-1,156.70629,86.1803)" d="M50.15593-55.90315H-50.15593C-51.80663-55.90315-53.14476-57.24127-53.14476-58.89198V-92.76546C-53.14476-94.41617-51.80663-95.75429-50.15593-95.75429H50.15593C51.80663-95.75429 53.14476-94.41617 53.14476-92.76546V-58.89198C53.14476-57.24127 51.80663-55.90315 50.15593-55.90315ZM-53.14476-95.75429" fill="#7f807f" fill-opacity=".5"/>
<path transform="matrix(1,0,0,-1,155.71,85.18402)" d="M50.15593-55.90315H-50.15593C-51.80663-55.90315-53.14476-57.24127-53.14476-58.89198V-92.76546C-53.14476-94.41617-51.80663-95.75429-50.15593-95.75429H50.15593C51.80663-95.75429 53.14476-94.41617 53.14476-92.76546V-58.89198C53.14476-57.24127 51.80663-55.90315 50.15593-55.90315ZM-53.14476-95.75429" fill="#add8e6" fill-opacity=".8"/>
<path transform="matrix(1,0,0,-1,155.71,85.18402)" stroke-width=".3985" stroke-linecap="butt" stroke-miterlimit="10" stroke-linejoin="miter" fill="none" stroke="#000000" d="M50.15593-55.90315H-50.15593C-51.80663-55.90315-53.14476-57.24127-53.14476-58.89198V-92.76546C-53.14476-94.41617-51.80663-95.75429-50.15593-95.75429H50.15593C51.80663-95.75429 53.14476-94.41617 53.14476-92.76546V-58.89198C53.14476-57.24127 51.80663-55.90315 50.15593-55.90315ZM-53.14476-95.75429"/>
<text xml:space="preserve" transform="matrix(1 0 -0 1 0 841.89)" font-size="8.9664" font-family="CMR9"><tspan y="-684.415" x="105.886 109.21254 116.89674 121.50547 126.1142 133.28731 138.53266 142.6303 147.23903 150.82559 155.9454 159.5499 166.71405 172.98157 177.84136 181.42792 185.03241 189.64115 193.73879 197.32535 201.93408">ImageFeatureExtractor</tspan><tspan y="-673.456" x="131.684 135.27057 137.83496 144.62253 148.72017 152.35157 159.26467 163.3623 166.94887 171.5576 176.16634">(iResNet50)</tspan></text>
<path transform="matrix(1,0,0,-1,156.70629,86.1803)" d="M191.1837-50.3908H96.507C94.8563-50.3908 93.51817-51.72891 93.51817-53.37962V-87.2531C93.51817-88.90381 94.8563-90.24193 96.507-90.24193H191.1837C192.83441-90.24193 194.17253-88.90381 194.17253-87.2531V-53.37962C194.17253-51.72891 192.83441-50.3908 191.1837-50.3908ZM93.51817-90.24193" fill="#7f807f" fill-opacity=".5"/>
<path transform="matrix(1,0,0,-1,155.71,85.18402)" d="M191.1837-50.3908H96.507C94.8563-50.3908 93.51817-51.72891 93.51817-53.37962V-87.2531C93.51817-88.90381 94.8563-90.24193 96.507-90.24193H191.1837C192.83441-90.24193 194.17253-88.90381 194.17253-87.2531V-53.37962C194.17253-51.72891 192.83441-50.3908 191.1837-50.3908ZM93.51817-90.24193" fill="#90ee90" fill-opacity=".8"/>
<path transform="matrix(1,0,0,-1,155.71,85.18402)" stroke-width=".3985" stroke-linecap="butt" stroke-miterlimit="10" stroke-linejoin="miter" fill="none" stroke="#000000" d="M191.1837-50.3908H96.507C94.8563-50.3908 93.51817-51.72891 93.51817-53.37962V-87.2531C93.51817-88.90381 94.8563-90.24193 96.507-90.24193H191.1837C192.83441-90.24193 194.17253-88.90381 194.17253-87.2531V-53.37962C194.17253-51.72891 192.83441-50.3908 191.1837-50.3908ZM93.51817-90.24193"/>
<text xml:space="preserve" transform="matrix(1 0 -0 1 0 841.89)" font-size="8.9664" font-family="CMR9"><tspan y="-689.927" x="252.548 259.20109 264.3209 274.30049 279.55479 283.65245 288.26118 291.84773 296.96754 300.57203 307.73619 314.0037 318.8635 322.45005 326.05455 330.66328 334.76094 338.34748 342.9562">CSVFeatureExtractor</tspan><tspan y="-678.969" x="285.732 289.31855 297.7649 303.52134 309.78886">(MLP)</tspan></text>
<path transform="matrix(1,0,0,-1,156.70629,86.1803)" d="M331.19749-50.3908H236.52079C234.87007-50.3908 233.53195-51.72891 233.53195-53.37962V-87.2531C233.53195-88.90381 234.87007-90.24193 236.52079-90.24193H331.19749C332.84819-90.24193 334.1863-88.90381 334.1863-87.2531V-53.37962C334.1863-51.72891 332.84819-50.3908 331.19749-50.3908ZM233.53195-90.24193" fill="#7f807f" fill-opacity=".5"/>
<path transform="matrix(1,0,0,-1,155.71,85.18402)" d="M331.19749-50.3908H236.52079C234.87007-50.3908 233.53195-51.72891 233.53195-53.37962V-87.2531C233.53195-88.90381 234.87007-90.24193 236.52079-90.24193H331.19749C332.84819-90.24193 334.1863-88.90381 334.1863-87.2531V-53.37962C334.1863-51.72891 332.84819-50.3908 331.19749-50.3908ZM233.53195-90.24193" fill="#ffb6c1" fill-opacity=".8"/>
<path transform="matrix(1,0,0,-1,155.71,85.18402)" stroke-width=".3985" stroke-linecap="butt" stroke-miterlimit="10" stroke-linejoin="miter" fill="none" stroke="#000000" d="M331.19749-50.3908H236.52079C234.87007-50.3908 233.53195-51.72891 233.53195-53.37962V-87.2531C233.53195-88.90381 234.87007-90.24193 236.52079-90.24193H331.19749C332.84819-90.24193 334.1863-88.90381 334.1863-87.2531V-53.37962C334.1863-51.72891 332.84819-50.3908 331.19749-50.3908ZM233.53195-90.24193"/>
<text xml:space="preserve" transform="matrix(1 0 -0 1 0 841.89)" font-size="8.9664" font-family="CMR9"><tspan y="-689.927" x="392.56 399.21308 404.3329 414.31248 419.56678 423.66444 428.27317 431.8597 436.97953 440.584 447.74818 454.0157 458.8755 462.46205 466.06654 470.67527 474.77293 478.35948 482.9682">CSVFeatureExtractor</tspan><tspan y="-678.969" x="425.744 429.33055 437.7769 443.53334 449.80085">(MLP)</tspan></text>
<path transform="matrix(1,0,0,-1,156.70629,86.1803)" d="M56.49884-138.67302H-56.49884C-58.14955-138.67302-59.48767-140.01114-59.48767-141.66185V-161.65306C-59.48767-163.30376-58.14955-164.64189-56.49884-164.64189H56.49884C58.14955-164.64189 59.48767-163.30376 59.48767-161.65306V-141.66185C59.48767-140.01114 58.14955-138.67302 56.49884-138.67302ZM-59.48767-164.64189" fill="#7f807f" fill-opacity=".5"/>
<path transform="matrix(1,0,0,-1,155.71,85.18402)" d="M56.49884-138.67302H-56.49884C-58.14955-138.67302-59.48767-140.01114-59.48767-141.66185V-161.65306C-59.48767-163.30376-58.14955-164.64189-56.49884-164.64189H56.49884C58.14955-164.64189 59.48767-163.30376 59.48767-161.65306V-141.66185C59.48767-140.01114 58.14955-138.67302 56.49884-138.67302ZM-59.48767-164.64189" fill="#c6e4ee" fill-opacity=".8"/>
<path transform="matrix(1,0,0,-1,155.71,85.18402)" stroke-width=".3985" stroke-linecap="butt" stroke-miterlimit="10" stroke-linejoin="miter" fill="none" stroke="#000000" d="M56.49884-138.67302H-56.49884C-58.14955-138.67302-59.48767-140.01114-59.48767-141.66185V-161.65306C-59.48767-163.30376-58.14955-164.64189-56.49884-164.64189H56.49884C58.14955-164.64189 59.48767-163.30376 59.48767-161.65306V-141.66185C59.48767-140.01114 58.14955-138.67302 56.49884-138.67302ZM-59.48767-164.64189"/>
<text xml:space="preserve" transform="matrix(1 0 -0 1 .0000076293949 841.89)" font-size="8.9664" font-family="CMR9"><tspan y="-608.587" x="136.809 143.07653 146.68102 151.80083 154.61627 158.71392 162.81156 166.39812 171.00685">Projector</tspan><tspan y="-597.62899" x="99.54401 103.13057 108.887 111.45139 116.571208 120.66885 125.27758 131.9486 136.55733 141.16606">(Linear512</tspan></text>
<text xml:space="preserve" transform="matrix(1 0 -0 1 .0000076293949 841.89)" font-size="8.9664" font-family="CMSY9" font-style="italic"><tspan y="-597.62899" x="145.772">&#x2192;</tspan></text>
<text xml:space="preserve" transform="matrix(1 0 -0 1 .0000076293949 841.89)" font-size="8.9664" font-family="CMR9"><tspan y="-597.62899" x="154.987 159.59574 164.20447 171.88867 182.11934 189.35523 195.62274 201.37917 208.29227">512+GELU)</tspan></text>
<path transform="matrix(1,0,0,-1,156.70629,86.1803)" d="M200.34421-133.16066H87.3465C85.6958-133.16066 84.35767-134.49878 84.35767-136.14949V-156.1407C84.35767-157.79141 85.6958-159.12953 87.3465-159.12953H200.34421C201.99492-159.12953 203.33304-157.79141 203.33304-156.1407V-136.14949C203.33304-134.49878 201.99492-133.16066 200.34421-133.16066ZM84.35767-159.12953" fill="#7f807f" fill-opacity=".5"/>
<path transform="matrix(1,0,0,-1,155.71,85.18402)" d="M200.34421-133.16066H87.3465C85.6958-133.16066 84.35767-134.49878 84.35767-136.14949V-156.1407C84.35767-157.79141 85.6958-159.12953 87.3465-159.12953H200.34421C201.99492-159.12953 203.33304-157.79141 203.33304-156.1407V-136.14949C203.33304-134.49878 201.99492-133.16066 200.34421-133.16066ZM84.35767-159.12953" fill="#b1f3b1" fill-opacity=".8"/>
<path transform="matrix(1,0,0,-1,155.71,85.18402)" stroke-width=".3985" stroke-linecap="butt" stroke-miterlimit="10" stroke-linejoin="miter" fill="none" stroke="#000000" d="M200.34421-133.16066H87.3465C85.6958-133.16066 84.35767-134.49878 84.35767-136.14949V-156.1407C84.35767-157.79141 85.6958-159.12953 87.3465-159.12953H200.34421C201.99492-159.12953 203.33304-157.79141 203.33304-156.1407V-136.14949C203.33304-134.49878 201.99492-133.16066 200.34421-133.16066ZM84.35767-159.12953"/>
<text xml:space="preserve" transform="matrix(1 0 -0 1 .000015258789 841.89)" font-size="8.9664" font-family="CMR9"><tspan y="-614.1" x="280.653 286.92054 290.52503 295.64485 298.4603 302.55796 306.6556 310.24217 314.8509">Projector</tspan><tspan y="-603.141" x="243.38703 246.97359 252.73001 255.2944 260.4142 264.51188 269.1206 275.80058 280.40034 285.00907">(Linear128</tspan></text>
<text xml:space="preserve" transform="matrix(1 0 -0 1 .000015258789 841.89)" font-size="8.9664" font-family="CMSY9" font-style="italic"><tspan y="-603.141" x="289.61604">&#x2192;</tspan></text>
<text xml:space="preserve" transform="matrix(1 0 -0 1 .000015258789 841.89)" font-size="8.9664" font-family="CMR9"><tspan y="-603.141" x="298.83103 303.43977 308.0485 315.7327 325.96336 333.19923 339.46675 345.22319 352.13627">512+GELU)</tspan></text>
<path transform="matrix(1,0,0,-1,156.70629,86.1803)" d="M340.358-133.16066H227.36028C225.70958-133.16066 224.37145-134.49878 224.37145-136.14949V-156.1407C224.37145-157.79141 225.70958-159.12953 227.36028-159.12953H340.358C342.0087-159.12953 343.34684-157.79141 343.34684-156.1407V-136.14949C343.34684-134.49878 342.0087-133.16066 340.358-133.16066ZM224.37145-159.12953" fill="#7f807f" fill-opacity=".5"/>
<path transform="matrix(1,0,0,-1,155.71,85.18402)" d="M340.358-133.16066H227.36028C225.70958-133.16066 224.37145-134.49878 224.37145-136.14949V-156.1407C224.37145-157.79141 225.70958-159.12953 227.36028-159.12953H340.358C342.0087-159.12953 343.34684-157.79141 343.34684-156.1407V-136.14949C343.34684-134.49878 342.0087-133.16066 340.358-133.16066ZM224.37145-159.12953" fill="#ffccd4" fill-opacity=".8"/>
<path transform="matrix(1,0,0,-1,155.71,85.18402)" stroke-width=".3985" stroke-linecap="butt" stroke-miterlimit="10" stroke-linejoin="miter" fill="none" stroke="#000000" d="M340.358-133.16066H227.36028C225.70958-133.16066 224.37145-134.49878 224.37145-136.14949V-156.1407C224.37145-157.79141 225.70958-159.12953 227.36028-159.12953H340.358C342.0087-159.12953 343.34684-157.79141 343.34684-156.1407V-136.14949C343.34684-134.49878 342.0087-133.16066 340.358-133.16066ZM224.37145-159.12953"/>
<text xml:space="preserve" transform="matrix(1 0 -0 1 0 841.89)" font-size="8.9664" font-family="CMR9"><tspan y="-614.1" x="420.665 426.93254 430.53703 435.65684 438.4723 442.56996 446.6676 450.25416 454.86289">Projector</tspan><tspan y="-603.141" x="383.39903 386.98558 392.742 395.3064 400.4262 404.52388 409.1326 415.81257 420.41233 425.02107">(Linear128</tspan></text>
<text xml:space="preserve" transform="matrix(1 0 -0 1 0 841.89)" font-size="8.9664" font-family="CMSY9" font-style="italic"><tspan y="-603.141" x="429.62803">&#x2192;</tspan></text>
<text xml:space="preserve" transform="matrix(1 0 -0 1 0 841.89)" font-size="8.9664" font-family="CMR9"><tspan y="-603.141" x="438.84303 443.45176 448.0605 455.7447 465.97535 473.2112 479.47874 485.23518 492.14826">512+GELU)</tspan></text>
<path transform="matrix(1,0,0,-1,156.70629,86.1803)" d="M249.41416-204.51811H38.27655C36.62584-204.51811 35.28772-205.85623 35.28772-207.50695V-281.23155C35.28772-282.88227 36.62584-284.22038 38.27655-284.22038H249.41416C251.06487-284.22038 252.40299-282.88227 252.40299-281.23155V-207.50695C252.40299-205.85623 251.06487-204.51811 249.41416-204.51811ZM35.28772-284.22038" fill="#7f807f" fill-opacity=".5"/>
<path transform="matrix(1,0,0,-1,155.71,85.18402)" d="M249.41416-204.51811H38.27655C36.62584-204.51811 35.28772-205.85623 35.28772-207.50695V-281.23155C35.28772-282.88227 36.62584-284.22038 38.27655-284.22038H249.41416C251.06487-284.22038 252.40299-282.88227 252.40299-281.23155V-207.50695C252.40299-205.85623 251.06487-204.51811 249.41416-204.51811ZM35.28772-284.22038" fill="#d9d9d9" fill-opacity=".8"/>
<path transform="matrix(1,0,0,-1,155.71,85.18402)" stroke-width=".3985" stroke-linecap="butt" stroke-miterlimit="10" stroke-linejoin="miter" fill="none" stroke="#000000" d="M249.41416-204.51811H38.27655C36.62584-204.51811 35.28772-205.85623 35.28772-207.50695V-281.23155C35.28772-282.88227 36.62584-284.22038 38.27655-284.22038H249.41416C251.06487-284.22038 252.40299-282.88227 252.40299-281.23155V-207.50695C252.40299-205.85623 251.06487-204.51811 249.41416-204.51811ZM35.28772-284.22038"/>
<text xml:space="preserve" transform="matrix(1 0 -0 1 .000015258789 841.89)" font-size="8.9664" font-family="CMR9"><tspan y="-515.827" x="238.607 245.26007 248.86457 253.4733 257.10469 260.73606 263.81153 272.25788 277.11769 282.2375 286.84623 292.48609 299.13914 302.72569 306.31224 310.40989 315.27864 318.86518 321.42958 326.0383 334.2246 339.4789 344.59873 348.2301 350.7945 355.40324">Cross-ModalAttentionFusion</tspan><tspan y="-504.86805" x="194.318 197.90456 203.78653 207.39102 211.99976 217.11957 220.75096 223.5664 228.17514 231.77964 239.46384 243.56148 250.24144 256.50895 261.62876 265.7264 270.5862 275.70603 279.80369 283.40818">(TransformerEncoder:</tspan></text>
<text xml:space="preserve" transform="matrix(1 0 -0 1 .000015258789 841.89)" font-size="8.9664" font-family="CMMI9" font-style="italic"><tspan y="-504.86805" x="290.068">d</tspan></text>
<text xml:space="preserve" transform="matrix(1 0 -0 1 .000015258789 841.89)" font-size="8.9664" font-family="CMR9"><tspan y="-504.86805" x="297.402 307.13056 311.7393 316.33906 320.94779 326.58766 331.70747 335.8051 340.41386 345.53367 349.16505 356.3292 360.93794 366.5778 369.14219 373.49089 378.09065 382.1883 385.7928 389.42417 396.58833 401.19706">=512,heads=8,layers=4)</tspan></text>
<path transform="matrix(1,0,0,-1,156.70629,86.1803)" d="M177.45699-341.31254H110.23372C108.58301-341.31254 107.24489-342.65065 107.24489-344.30137V-378.17485C107.24489-379.82554 108.58301-381.16365 110.23372-381.16365H177.45699C179.1077-381.16365 180.44582-379.82554 180.44582-378.17485V-344.30137C180.44582-342.65065 179.1077-341.31254 177.45699-341.31254ZM107.24489-381.16365" fill="#7f807f" fill-opacity=".5"/>
<path transform="matrix(1,0,0,-1,155.71,85.18402)" d="M177.45699-341.31254H110.23372C108.58301-341.31254 107.24489-342.65065 107.24489-344.30137V-378.17485C107.24489-379.82554 108.58301-381.16365 110.23372-381.16365H177.45699C179.1077-381.16365 180.44582-379.82554 180.44582-378.17485V-344.30137C180.44582-342.65065 179.1077-341.31254 177.45699-341.31254ZM107.24489-381.16365" fill="#bfbfbf" fill-opacity=".8"/>
<path transform="matrix(1,0,0,-1,155.71,85.18402)" stroke-width=".3985" stroke-linecap="butt" stroke-miterlimit="10" stroke-linejoin="miter" fill="none" stroke="#000000" d="M177.45699-341.31254H110.23372C108.58301-341.31254 107.24489-342.65065 107.24489-344.30137V-378.17485C107.24489-379.82554 108.58301-381.16365 110.23372-381.16365H177.45699C179.1077-381.16365 180.44582-379.82554 180.44582-378.17485V-344.30137C180.44582-342.65065 179.1077-341.31254 177.45699-341.31254ZM107.24489-381.16365"/>
<text xml:space="preserve" transform="matrix(1 0 -0 1 .000030517579 841.89)" font-size="8.9664" font-family="CMR9"><tspan y="-393.231" x="266.274 273.06156 277.1592 281.76795 285.37245 289.4701 293.10148 296.73286 299.29725 303.90599 312.0923 319.00538 323.10304 327.71177">RegressionHead</tspan></text>
<path transform="matrix(1,0,0,-1,156.70629,86.1803)" d="M181.93572-424.08238H105.75499C104.10428-424.08238 102.76616-425.4205 102.76616-427.0712V-447.0624C102.76616-448.71315 104.10428-450.05125 105.75499-450.05125H181.93572C183.58643-450.05125 184.92455-448.71315 184.92455-447.0624V-427.0712C184.92455-425.4205 183.58643-424.08238 181.93572-424.08238ZM102.76616-450.05125" fill="#7f807f" fill-opacity=".5"/>
<path transform="matrix(1,0,0,-1,155.71,85.18402)" d="M181.93572-424.08238H105.75499C104.10428-424.08238 102.76616-425.4205 102.76616-427.0712V-447.0624C102.76616-448.71315 104.10428-450.05125 105.75499-450.05125H181.93572C183.58643-450.05125 184.92455-448.71315 184.92455-447.0624V-427.0712C184.92455-425.4205 183.58643-424.08238 181.93572-424.08238ZM102.76616-450.05125" fill="#a6a6a6" fill-opacity=".8"/>
<path transform="matrix(1,0,0,-1,155.71,85.18402)" stroke-width=".3985" stroke-linecap="butt" stroke-miterlimit="10" stroke-linejoin="miter" fill="none" stroke="#000000" d="M181.93572-424.08238H105.75499C104.10428-424.08238 102.76616-425.4205 102.76616-427.0712V-447.0624C102.76616-448.71315 104.10428-450.05125 105.75499-450.05125H181.93572C183.58643-450.05125 184.92455-448.71315 184.92455-447.0624V-427.0712C184.92455-425.4205 183.58643-424.08238 181.93572-424.08238ZM102.76616-450.05125"/>
<text xml:space="preserve" transform="matrix(1 0 -0 1 0 841.89)" font-size="8.9664" font-family="CMR9"><tspan y="-323.182" x="261.795 268.58259 272.68025 277.28898 280.89347 284.99113 288.6225 292.25389 294.81828 299.427 307.6133 314.77748 319.89729 323.48384 328.60365 333.72346">RegressionOutput</tspan><tspan y="-312.22303" x="277.84703 281.43357 286.0423 296.1564 301.2762 305.37388 309.9826 313.5871 317.68476">(1DScore)</tspan></text>
<path transform="matrix(1,0,0,-1,155.71,85.18402)" stroke-width=".79701" stroke-linecap="butt" stroke-miterlimit="10" stroke-linejoin="miter" fill="none" stroke="#add8e6" d="M0-13.18369V-51.59355"/>
<path transform="matrix(0,1,1,0,155.71,134.31249)" d="M5.44046 0 1.28699 1.5706 2.66432 0 1.28699-1.5706Z" fill="#add8e6"/>
<path transform="matrix(0,1,1,0,155.71,134.31249)" stroke-width=".79701" stroke-linecap="butt" stroke-miterlimit="10" stroke-linejoin="miter" fill="none" stroke="#add8e6" d="M5.44046 0 1.28699 1.5706 2.66432 0 1.28699-1.5706Z"/>
<path transform="matrix(1,0,0,-1,155.71,85.18402)" stroke-width=".79701" stroke-linecap="butt" stroke-miterlimit="10" stroke-linejoin="miter" fill="none" stroke="#90ee90" d="M143.84535-7.67133V-46.08119"/>
<path transform="matrix(0,1,1,0,299.55537,128.80013)" d="M5.44046 0 1.28699 1.5706 2.66432 0 1.28699-1.5706Z" fill="#90ee90"/>
<path transform="matrix(0,1,1,0,299.55537,128.80013)" stroke-width=".79701" stroke-linecap="butt" stroke-miterlimit="10" stroke-linejoin="miter" fill="none" stroke="#90ee90" d="M5.44046 0 1.28699 1.5706 2.66432 0 1.28699-1.5706Z"/>
<path transform="matrix(1,0,0,-1,155.71,85.18402)" stroke-width=".79701" stroke-linecap="butt" stroke-miterlimit="10" stroke-linejoin="miter" fill="none" stroke="#ffb6c1" d="M283.85914-7.67133V-46.08119"/>
<path transform="matrix(0,1,1,0,439.56916,128.80013)" d="M5.44046 0 1.28699 1.5706 2.66432 0 1.28699-1.5706Z" fill="#ffb6c1"/>
<path transform="matrix(0,1,1,0,439.56916,128.80013)" stroke-width=".79701" stroke-linecap="butt" stroke-miterlimit="10" stroke-linejoin="miter" fill="none" stroke="#ffb6c1" d="M5.44046 0 1.28699 1.5706 2.66432 0 1.28699-1.5706Z"/>
<path transform="matrix(1,0,0,-1,155.71,85.18402)" stroke-width=".79701" stroke-linecap="butt" stroke-miterlimit="10" stroke-linejoin="miter" fill="none" stroke="#add8e6" d="M0-95.95354V-134.3634"/>
<path transform="matrix(0,1,1,0,155.71,217.08235)" d="M5.44046 0 1.28699 1.5706 2.66432 0 1.28699-1.5706Z" fill="#add8e6"/>
<path transform="matrix(0,1,1,0,155.71,217.08235)" stroke-width=".79701" stroke-linecap="butt" stroke-miterlimit="10" stroke-linejoin="miter" fill="none" stroke="#add8e6" d="M5.44046 0 1.28699 1.5706 2.66432 0 1.28699-1.5706Z"/>
<path transform="matrix(1,0,0,-1,155.71,85.18402)" stroke-width=".79701" stroke-linecap="butt" stroke-miterlimit="10" stroke-linejoin="miter" fill="none" stroke="#90ee90" d="M143.84535-90.44118V-128.85105"/>
<path transform="matrix(0,1,1,0,299.55537,211.56999)" d="M5.44046 0 1.28699 1.5706 2.66432 0 1.28699-1.5706Z" fill="#90ee90"/>
<path transform="matrix(0,1,1,0,299.55537,211.56999)" stroke-width=".79701" stroke-linecap="butt" stroke-miterlimit="10" stroke-linejoin="miter" fill="none" stroke="#90ee90" d="M5.44046 0 1.28699 1.5706 2.66432 0 1.28699-1.5706Z"/>
<path transform="matrix(1,0,0,-1,155.71,85.18402)" stroke-width=".79701" stroke-linecap="butt" stroke-miterlimit="10" stroke-linejoin="miter" fill="none" stroke="#ffb6c1" d="M283.85914-90.44118V-128.85105"/>
<path transform="matrix(0,1,1,0,439.56916,211.56999)" d="M5.44046 0 1.28699 1.5706 2.66432 0 1.28699-1.5706Z" fill="#ffb6c1"/>
<path transform="matrix(0,1,1,0,439.56916,211.56999)" stroke-width=".79701" stroke-linecap="butt" stroke-miterlimit="10" stroke-linejoin="miter" fill="none" stroke="#ffb6c1" d="M5.44046 0 1.28699 1.5706 2.66432 0 1.28699-1.5706Z"/>
<path transform="matrix(1,0,0,-1,155.71,85.18402)" stroke-width=".79701" stroke-linecap="butt" stroke-miterlimit="10" stroke-linejoin="miter" fill="none" stroke="#add8e6" d="M0-164.84114V-193.18795H30.45807V-200.2085"/>
<path transform="matrix(0,1,1,0,186.16808,282.92744)" d="M5.44046 0 1.28699 1.5706 2.66432 0 1.28699-1.5706Z" fill="#add8e6"/>
<path transform="matrix(0,1,1,0,186.16808,282.92744)" stroke-width=".79701" stroke-linecap="butt" stroke-miterlimit="10" stroke-linejoin="miter" fill="none" stroke="#add8e6" d="M5.44046 0 1.28699 1.5706 2.66432 0 1.28699-1.5706Z"/>
<path transform="matrix(1,0,0,-1,155.71,85.18402)" stroke-width=".79701" stroke-linecap="butt" stroke-miterlimit="10" stroke-linejoin="miter" fill="none" stroke="#90ee90" d="M143.84535-159.32878V-200.2085"/>
<path transform="matrix(0,1,1,0,299.55537,282.92744)" d="M5.44046 0 1.28699 1.5706 2.66432 0 1.28699-1.5706Z" fill="#90ee90"/>
<path transform="matrix(0,1,1,0,299.55537,282.92744)" stroke-width=".79701" stroke-linecap="butt" stroke-miterlimit="10" stroke-linejoin="miter" fill="none" stroke="#90ee90" d="M5.44046 0 1.28699 1.5706 2.66432 0 1.28699-1.5706Z"/>
<path transform="matrix(1,0,0,-1,155.71,85.18402)" stroke-width=".79701" stroke-linecap="butt" stroke-miterlimit="10" stroke-linejoin="miter" fill="none" stroke="#ffb6c1" d="M283.85914-159.32878V-187.6756H257.23265V-200.2085"/>
<path transform="matrix(0,1,1,0,412.94264,282.92744)" d="M5.44046 0 1.28699 1.5706 2.66432 0 1.28699-1.5706Z" fill="#ffb6c1"/>
<path transform="matrix(0,1,1,0,412.94264,282.92744)" stroke-width=".79701" stroke-linecap="butt" stroke-miterlimit="10" stroke-linejoin="miter" fill="none" stroke="#ffb6c1" d="M5.44046 0 1.28699 1.5706 2.66432 0 1.28699-1.5706Z"/>
<path transform="matrix(1,0,0,-1,155.71,85.18402)" stroke-width=".79701" stroke-linecap="butt" stroke-miterlimit="10" stroke-linejoin="miter" fill="none" stroke="#00aeef" d="M143.84535-284.41963V-337.0029"/>
<path transform="matrix(0,1,1,0,299.55537,419.72187)" d="M5.44046 0 1.28699 1.5706 2.66432 0 1.28699-1.5706Z" fill="#00aeef"/>
<path transform="matrix(0,1,1,0,299.55537,419.72187)" stroke-width=".79701" stroke-linecap="butt" stroke-miterlimit="10" stroke-linejoin="miter" fill="none" stroke="#00aeef" d="M5.44046 0 1.28699 1.5706 2.66432 0 1.28699-1.5706Z"/>
<path transform="matrix(1,0,0,-1,155.71,85.18402)" stroke-width=".79701" stroke-linecap="butt" stroke-miterlimit="10" stroke-linejoin="miter" fill="none" stroke="#00aeef" d="M143.84535-381.3629V-419.77278"/>
<path transform="matrix(0,1,1,0,299.55537,502.49174)" d="M5.44046 0 1.28699 1.5706 2.66432 0 1.28699-1.5706Z" fill="#00aeef"/>
<path transform="matrix(0,1,1,0,299.55537,502.49174)" stroke-width=".79701" stroke-linecap="butt" stroke-miterlimit="10" stroke-linejoin="miter" fill="none" stroke="#00aeef" d="M5.44046 0 1.28699 1.5706 2.66432 0 1.28699-1.5706Z"/>
<text xml:space="preserve" transform="matrix(1 0 -0 1 0 841.89)" font-size="9.9626" font-family="CMR10"><tspan y="-42.112" x="295.147">1</tspan></text>
</svg>
